<?xml version="1.0" encoding="utf-8"?>
<!-- Generator: Adobe Illustrator 24.0.1, SVG Export Plug-In . SVG Version: 6.00 Build 0)  -->
<svg version="1.1" id="Calque_1" xmlns="http://www.w3.org/2000/svg" xmlns:xlink="http://www.w3.org/1999/xlink" x="0px" y="0px"
	 viewBox="0 0 1000 1000" style="enable-background:new 0 0 1000 1000;" xml:space="preserve">
<style type="text/css">
	.st0{fill:#982727;}
	.st1{fill:#E3E4ED;}
	.st2{fill:#C0C3C9;}
	.st3{fill:#2E2F3F;}
	.st4{fill:#20212A;}
	.st5{fill:#363845;}
	.st6{fill:#7E1B1B;}
	.st7{fill:#FFFFFF;}
	.st8{fill:url(#SVGID_1_);}
	.st9{fill:#C94E4E;}
	.st10{opacity:0.38;fill:#C94E4E;}
	.st11{fill:#C4C4C4;}
	.st12{fill:url(#SVGID_2_);}
	.st13{opacity:0.31;fill:#FFFFFF;}
	.st14{opacity:0.22;fill:#FFFFFF;}
</style>
<g>
	<g>
		<path class="st0" d="M413.8,336.7l-195.3,22.7c0,0-216.2,164.8-207.2,175.6c9,10.8,239.8,29,239.8,29L413.8,336.7z"/>
		<path class="st0" d="M782.1,554.6l27.7,194.7c0,0-104.5,251-117.2,245c-12.8-6-89-224.6-89-224.6L782.1,554.6z"/>
		<g>
			<path class="st1" d="M924.2,60.3c-4.9-24.9-9.3-39.1-9.3-39.1C317.1,28,249.4,592.9,249.4,592.9L502,766
				c33-13.2,65.4-27.9,97-44.1C833.6,604.6,923.5,321.5,924.2,60.3z"/>
			<path class="st2" d="M924.2,60.3c-0.6,261.2-90.5,544.3-325.1,661.6c-31.6,16.2-64,30.9-97,44.1l50.8,34.8
				C986.3,575.5,948.8,184.5,924.2,60.3z"/>
			
				<ellipse transform="matrix(0.5264 -0.8503 0.8503 0.5264 -394.2779 673.0072)" class="st3" cx="406.9" cy="690.4" rx="93.2" ry="185.2"/>
			<g>
				<path class="st4" d="M408.6,671.6c-48-29.7-99.1-34.2-114.1-10.1L270,701.2l50,31c9.6,9.6,21.2,18.8,34.4,27
					c13.2,8.2,26.7,14.4,39.5,18.7l50,31l24.5-39.6C483.4,745.1,456.6,701.4,408.6,671.6z"/>
				
					<ellipse transform="matrix(0.5264 -0.8503 0.8503 0.5264 -472.9235 661.1219)" class="st5" cx="356.9" cy="755" rx="51.5" ry="102.3"/>
				
					<ellipse transform="matrix(0.5264 -0.8503 0.8503 0.5264 -478.3275 660.8716)" class="st4" cx="354" cy="759.8" rx="35" ry="69.5"/>
			</g>
			<path class="st0" d="M914.3,20.4c-161.4-6.1-282,55.7-282,55.7c112.6-17.3,186.2,23.8,232.6,71.9c1-0.3,2-0.7,3-1
				C917.8,128.9,914.5,66.5,914.3,20.4z"/>
			<path class="st6" d="M915.4,20.4c-0.4,0-0.7,0-1.1,0c0.2,46.1,3.5,108.5-46.4,126.6c-1,0.3-2,0.7-3,1
				c51.8,53.8,69.6,116.3,69.6,116.3C953.9,148.8,915.4,20.4,915.4,20.4z"/>
		</g>
		<path class="st7" d="M632.3,85.6c0,0-241.8,97.7-324.1,364.7l146,15.4c0,0,202.8-297.8,350-347.7
			C804.2,118.1,732.8,67.1,632.3,85.6z"/>
		<linearGradient id="SVGID_1_" gradientUnits="userSpaceOnUse" x1="806.8765" y1="508.0906" x2="627.6332" y2="256.9954">
			<stop  offset="0" style="stop-color:#F0F1F1;stop-opacity:0"/>
			<stop  offset="1" style="stop-color:#FFFFFF"/>
		</linearGradient>
		<path class="st8" d="M819.3,131.4c0,0-154.2,101.1-334.8,348.9c0,0,109.9,31.4,140.8,153.5l278.1-395.6
			C903.5,238.2,904.4,191,819.3,131.4z"/>
		<path class="st0" d="M407.6,625.6c0,0,44.4-159.8,187.1-243.6c11.2-6.6,24.8,3.1,22.1,15.8c-10.6,48.8-46.1,150.3-164.5,250.7
			C452.3,648.5,401.7,680.6,407.6,625.6z"/>
	</g>
	<path class="st9" d="M687,64.8c0,0,107.1-43.5,216.4-34.8c0,0-26.9,6.2-80.7,73C822.7,103,789.5,59.6,687,64.8z"/>
	<path class="st10" d="M61.3,505.6c0,0,155.3-139.1,163.8-136.8c8.5,2.3,97.3-12.4,97.3-12.4s-66.2,115.3-73,194.7
		C249.4,551.1,19.6,535.7,61.3,505.6z"/>
	<g>
		<g>
			<ellipse class="st3" cx="576.6" cy="206.3" rx="110.4" ry="64.1"/>
			<ellipse class="st11" cx="576.6" cy="191.7" rx="110.4" ry="64.1"/>
			<ellipse class="st3" cx="574.3" cy="186.9" rx="76.9" ry="44.6"/>
			<linearGradient id="SVGID_2_" gradientUnits="userSpaceOnUse" x1="591.7772" y1="256.8317" x2="558.5555" y2="150.2129">
				<stop  offset="0" style="stop-color:#303C61"/>
				<stop  offset="1" style="stop-color:#569886"/>
			</linearGradient>
			<ellipse class="st12" cx="572.4" cy="194.7" rx="63.4" ry="36.8"/>
		</g>
		<polygon class="st13" points="515.2,202.3 621.9,174.5 625.3,179.1 517.6,208.1 		"/>
		<path class="st14" d="M515.2,198.1l99.3-25.9C614.5,172.2,529.2,189.9,515.2,198.1z"/>
		<path class="st14" d="M527,212.7l99.3-25.9C626.2,186.9,540.9,204.6,527,212.7z"/>
	</g>
	<path class="st10" d="M773.4,642.8c0,0,12.7,90.4,12.7,102c0,11.6-92.1,214-92.1,214l-58.2-188.4
		C635.8,770.4,746.8,696.5,773.4,642.8z"/>
	<path class="st9" d="M603.6,389.3c0,0-187.1,230.6-181.6,244.5C427.6,647.7,607,412.5,603.6,389.3z"/>
</g>
</svg>
