<?xml version="1.0" encoding="utf-8"?>
<!-- Generator: Adobe Illustrator 24.0.1, SVG Export Plug-In . SVG Version: 6.00 Build 0)  -->
<svg version="1.1" xmlns="http://www.w3.org/2000/svg" xmlns:xlink="http://www.w3.org/1999/xlink" x="0px" y="0px"
	 viewBox="0 0 500 500" style="enable-background:new 0 0 500 500;" xml:space="preserve">
<style type="text/css">
	.st0{fill:url(#SVGID_1_);}
	.st1{opacity:0.48;}
	.st2{fill:url(#SVGID_2_);}
	.st3{fill:url(#SVGID_3_);}
	.st4{fill:url(#SVGID_4_);}
	.st5{fill:url(#SVGID_5_);}
	.st6{fill:#FFFFFF;}
	.st7{fill:url(#SVGID_6_);}
	.st8{clip-path:url(#SVGID_8_);}
	.st9{fill:url(#SVGID_9_);}
	.st10{fill:url(#SVGID_10_);}
	.st11{fill:#253843;}
	.st12{fill:#395467;}
	.st13{fill:#4C7E9C;}
	.st14{clip-path:url(#SVGID_12_);}
	.st15{fill:#982727;}
	.st16{fill:#E3E4ED;}
	.st17{fill:#C0C3C9;}
	.st18{fill:#2E2F3F;}
	.st19{fill:#20212A;}
	.st20{fill:#363845;}
	.st21{fill:#7E1B1B;}
	.st22{fill:url(#SVGID_13_);}
	.st23{fill:#C94E4E;}
	.st24{opacity:0.38;fill:#C94E4E;}
	.st25{fill:#C4C4C4;}
	.st26{fill:url(#SVGID_14_);}
	.st27{opacity:0.31;fill:#FFFFFF;}
	.st28{opacity:0.22;fill:#FFFFFF;}
	.st29{clip-path:url(#SVGID_12_);fill:#FFFFFF;}
</style>
<g id="BACKGROUND">
	<linearGradient id="SVGID_1_" gradientUnits="userSpaceOnUse" x1="250" y1="-10.8965" x2="250" y2="493.6485">
		<stop  offset="0" style="stop-color:#303C61"/>
		<stop  offset="1" style="stop-color:#569886"/>
	</linearGradient>
	<rect class="st0" width="500" height="500"/>
	<g class="st1">
		<linearGradient id="SVGID_2_" gradientUnits="userSpaceOnUse" x1="250" y1="305.8397" x2="250" y2="497.5862">
			<stop  offset="0" style="stop-color:#303C61"/>
			<stop  offset="1" style="stop-color:#569886"/>
		</linearGradient>
		<path class="st2" d="M487,312c-56-6-111,1-160,26c-38,20-77,30-114,53c-65,39.8-141.7,61.1-213,48.8V500h364.1
			c6.2-19.5,16.8-37.6,29.9-53c24.8-29.5,65.3-57.1,106-60.6v-72.8C495.5,312.9,491.2,312.5,487,312z"/>
		<g>
			<linearGradient id="SVGID_3_" gradientUnits="userSpaceOnUse" x1="250" y1="36.8371" x2="250" y2="270.6178">
				<stop  offset="0" style="stop-color:#303C61"/>
				<stop  offset="1" style="stop-color:#569886"/>
			</linearGradient>
			<path class="st3" d="M135,256c82-29,157-73,244-83c39.5-4.3,81.6-4.8,121,3.8V80.8c-5.7-3.1-11.5-6-17-8.8c-58-28-122-34-186-28
				c-8,1-16,1-24,3c-56,12-104,38-156,57c-36.4,12.6-80.8,12.9-117-3.2v164.9c2.7,0.8,5.3,1.6,8,2.3C50,280,94,271,135,256z"/>
			<linearGradient id="SVGID_4_" gradientUnits="userSpaceOnUse" x1="250" y1="164.0007" x2="250" y2="439.8061">
				<stop  offset="0" style="stop-color:#303C61"/>
				<stop  offset="1" style="stop-color:#569886"/>
			</linearGradient>
			<path class="st4" d="M487,312c4.2,0.5,8.5,0.9,13,1.5V176.8c-39.4-8.7-81.5-8.1-121-3.8c-87,10-162,54-244,83
				c-41,15-85,24-127,12c-2.7-0.8-5.3-1.5-8-2.3v174.1c71.3,12.3,148-9,213-48.8c37-23,76-33,114-53C376,313,431,306,487,312z"/>
			<linearGradient id="SVGID_5_" gradientUnits="userSpaceOnUse" x1="250" y1="-2.4665" x2="250" y2="111.7418">
				<stop  offset="0" style="stop-color:#303C61"/>
				<stop  offset="1" style="stop-color:#569886"/>
			</linearGradient>
			<path class="st5" d="M0,0v100.8c36.2,16.1,80.6,15.8,117,3.2c52-19,100-45,156-57c8-2,16-2,24-3c64-6,128,0,186,28
				c5.5,2.7,11.3,5.6,17,8.8V0H0z"/>
		</g>
	</g>
	<g>
		<g>
			
				<image style="overflow:visible;" width="535" height="307" xlink:href="20051443781081F7.png"  transform="matrix(1 0 0 1 -23 -22)">
			</image>
		</g>
		<g>
			<path class="st6" d="M67.7,23.3c0,0.8-0.7,1.5-1.5,1.5c-0.8,0-1.5-0.7-1.5-1.5c0-0.8,0.7-1.5,1.5-1.5
				C67,21.8,67.7,22.5,67.7,23.3z"/>
			<polygon class="st6" points="118.2,38.1 118.2,38.1 118.2,38.1 118.2,38.1 			"/>
			<circle class="st6" cx="87.9" cy="55.1" r="1.8"/>
			<path class="st6" d="M76.5,39.7c0,0.9,0.7,1.6,1.6,1.6c0.9,0,1.6-0.7,1.6-1.6c0-0.9-0.7-1.6-1.6-1.6
				C77.2,38.1,76.5,38.8,76.5,39.7z"/>
			<circle class="st6" cx="52.2" cy="65.8" r="2.5"/>
			<path class="st6" d="M103.9,66.7c0,0.5,0.4,0.9,0.9,0.9c0.5,0,0.9-0.4,0.9-0.9c0-0.5-0.4-0.9-0.9-0.9
				C104.3,65.8,103.9,66.2,103.9,66.7z"/>
			<path class="st6" d="M81,101c0,0.9,0.7,1.7,1.7,1.7c0.9,0,1.7-0.7,1.7-1.7c0-0.9-0.7-1.7-1.7-1.7C81.7,99.3,81,100,81,101z"/>
			<circle class="st6" cx="114.9" cy="139.1" r="0.8"/>
			<path class="st6" d="M91.9,163.4c0,0.8,0.6,1.4,1.4,1.4c0.8,0,1.4-0.6,1.4-1.4c0-0.8-0.6-1.4-1.4-1.4
				C92.5,162,91.9,162.6,91.9,163.4z"/>
			<circle class="st6" cx="50.9" cy="133.5" r="1.2"/>
			<path class="st6" d="M25.4,163.4c0,0.8,0.6,1.4,1.4,1.4c0.8,0,1.4-0.6,1.4-1.4c0-0.8-0.6-1.4-1.4-1.4
				C26,162,25.4,162.6,25.4,163.4z"/>
			<path class="st6" d="M52.7,174.2c0,0.1-0.1,0.2-0.2,0.2c-0.1,0-0.2-0.1-0.2-0.2c0-0.1,0.1-0.2,0.2-0.2
				C52.6,174,52.7,174.1,52.7,174.2z"/>
			<circle class="st6" cx="16.9" cy="64.3" r="3.8"/>
			<path class="st6" d="M25.4,22.5c0,0.4,0.3,0.7,0.7,0.7c0.4,0,0.7-0.3,0.7-0.7c0-0.4-0.3-0.7-0.7-0.7
				C25.7,21.8,25.4,22.1,25.4,22.5z"/>
			<polygon class="st6" points="143.1,24.8 143.1,24.8 143.1,24.8 143.1,24.8 			"/>
			<path class="st6" d="M178.4,38.5c0,0.2,0.2,0.4,0.4,0.4c0.2,0,0.4-0.2,0.4-0.4c0-0.2-0.2-0.4-0.4-0.4
				C178.5,38.1,178.4,38.3,178.4,38.5z"/>
			<path class="st6" d="M153.6,58.7c0,1,0.8,1.8,1.8,1.8s1.8-0.8,1.8-1.8c0-1-0.8-1.8-1.8-1.8S153.6,57.7,153.6,58.7z"/>
			<path class="st6" d="M147.9,22.7c0,0.5,0.4,0.9,0.9,0.9s0.9-0.4,0.9-0.9c0-0.5-0.4-0.9-0.9-0.9S147.9,22.2,147.9,22.7z"/>
			<path class="st6" d="M133.3,68.2c0,0.8,0.6,1.5,1.5,1.5c0.8,0,1.5-0.7,1.5-1.5c0-0.8-0.6-1.5-1.5-1.5
				C133.9,66.7,133.3,67.4,133.3,68.2z"/>
			<path class="st6" d="M160.5,91.2c0,0.8,0.6,1.4,1.4,1.4s1.4-0.6,1.4-1.4c0-0.8-0.6-1.4-1.4-1.4S160.5,90.4,160.5,91.2z"/>
			<path class="st6" d="M240.2,15.8c0,0.5,0.4,1,1,1c0.5,0,1-0.4,1-1c0-0.5-0.4-1-1-1C240.6,14.9,240.2,15.3,240.2,15.8z"/>
			<path class="st6" d="M374.8,41.1c0,0.8,0.6,1.4,1.4,1.4c0.8,0,1.4-0.6,1.4-1.4c0-0.8-0.6-1.4-1.4-1.4
				C375.5,39.7,374.8,40.3,374.8,41.1z"/>
			<path class="st6" d="M353.9,61.9c0,0.8,0.6,1.4,1.4,1.4c0.8,0,1.4-0.6,1.4-1.4s-0.6-1.4-1.4-1.4
				C354.5,60.5,353.9,61.1,353.9,61.9z"/>
			<path class="st6" d="M366.8,90.5c0,0.4,0.3,0.7,0.7,0.7c0.4,0,0.7-0.3,0.7-0.7c0-0.4-0.3-0.7-0.7-0.7
				C367.1,89.8,366.8,90.1,366.8,90.5z"/>
			<circle class="st6" cx="340.2" cy="109.7" r="2"/>
			<path class="st6" d="M334.4,158.9c0,1.7-1.4,3.1-3.1,3.1c-1.7,0-3.1-1.4-3.1-3.1c0-1.7,1.4-3.1,3.1-3.1
				C333,155.8,334.4,157.2,334.4,158.9z"/>
			<polygon class="st6" points="321.2,199.3 321.2,199.3 321.2,199.3 321.2,199.3 			"/>
			<path class="st6" d="M263.5,239.1c0,1.3,1,2.3,2.3,2.3c1.3,0,2.3-1,2.3-2.3s-1-2.3-2.3-2.3C264.6,236.8,263.5,237.8,263.5,239.1z
				"/>
			<path class="st6" d="M238.3,218.8c0,0.8,0.6,1.4,1.4,1.4s1.4-0.6,1.4-1.4c0-0.8-0.6-1.4-1.4-1.4S238.3,218,238.3,218.8z"/>
			<circle class="st6" cx="252.8" cy="198.2" r="2.6"/>
			<path class="st6" d="M334.4,218.9c0,0.9-0.7,1.5-1.5,1.5c-0.9,0-1.5-0.7-1.5-1.5c0-0.9,0.7-1.5,1.5-1.5
				C333.7,217.4,334.4,218.1,334.4,218.9z"/>
			<circle class="st6" cx="363.4" cy="232.7" r="0.9"/>
			<path class="st6" d="M333.2,248.4c0,0.3,0.3,0.6,0.6,0.6c0.3,0,0.6-0.3,0.6-0.6c0-0.3-0.3-0.6-0.6-0.6
				C333.5,247.8,333.2,248.1,333.2,248.4z"/>
			<path class="st6" d="M410.9,175.9c0,0.8,0.6,1.4,1.4,1.4c0.8,0,1.4-0.6,1.4-1.4s-0.6-1.4-1.4-1.4
				C411.5,174.5,410.9,175.1,410.9,175.9z"/>
			<path class="st6" d="M434.2,103.6c0,0.5-0.4,1-1,1c-0.5,0-1-0.4-1-1c0-0.5,0.4-1,1-1C433.8,102.6,434.2,103,434.2,103.6z"/>
			<circle class="st6" cx="373.9" cy="124.9" r="2.4"/>
			<path class="st6" d="M474.3,114.2c0,0.4,0.3,0.7,0.7,0.7c0.4,0,0.7-0.3,0.7-0.7c0-0.4-0.3-0.7-0.7-0.7
				C474.6,113.5,474.3,113.8,474.3,114.2z"/>
			<path class="st6" d="M458.1,39.1c0,0.6,0.5,1.1,1.1,1.1c0.6,0,1.1-0.5,1.1-1.1c0-0.6-0.5-1.1-1.1-1.1
				C458.6,38.1,458.1,38.6,458.1,39.1z"/>
			<circle class="st6" cx="431.3" cy="57.8" r="0.9"/>
		</g>
	</g>
</g>
<g id="OBJECTS">
	<g>
		<linearGradient id="SVGID_6_" gradientUnits="userSpaceOnUse" x1="432.0486" y1="383.9202" x2="432.0486" y2="498.5569">
			<stop  offset="0" style="stop-color:#303C61"/>
			<stop  offset="1" style="stop-color:#569886"/>
		</linearGradient>
		<path class="st7" d="M394,447c-13.1,15.4-23.7,33.5-29.9,53H500V386.4C459.3,389.9,418.8,417.5,394,447z"/>
		<g>
			<defs>
				<rect id="SVGID_7_" width="500" height="500"/>
			</defs>
			<clipPath id="SVGID_8_">
				<use xlink:href="#SVGID_7_"  style="overflow:visible;"/>
			</clipPath>
			<g class="st8">
				<linearGradient id="SVGID_9_" gradientUnits="userSpaceOnUse" x1="310.7413" y1="61.0033" x2="262.7413" y2="203.0033">
					<stop  offset="0" style="stop-color:#FFFFFF;stop-opacity:0"/>
					<stop  offset="1" style="stop-color:#FFFFFF"/>
				</linearGradient>
				<path class="st9" d="M510.9,316.4c1.3-3.6,1.9-7.4,1.9-11.3c0-3.2-0.5-6.3-1.3-9.2c20.1-1.8,35.9-18.7,35.9-39.3
					c0-16.9-10.7-31.4-25.7-37c2.7-4.5,4.2-9.8,4.2-15.4c0-8.7-3.6-16.5-9.4-22c3.8-3.9,6.1-9.3,6.1-15.1c0-12.1-9.8-21.9-21.9-21.9
					c-12.1,0-21.9,9.8-21.9,21.9c0,3.7,0.9,7.2,2.6,10.3c-9.6,5.1-16.2,15.2-16.2,26.9c0,5.4,1.4,10.4,3.9,14.8
					c-9,1.5-15.9,9.3-15.9,18.7c0,9.2,6.6,16.9,15.3,18.6c0,0.1,0,0.2,0,0.2c0,5.4,1.1,10.6,3.1,15.3c-10.7,2.3-19.4,9.6-23.8,19.3
					c-1-0.1-2-0.1-3-0.1c-8.5,0-16.3,2.7-22.7,7.3c-0.2-11.5-9.6-20.8-21.1-20.8c-11.7,0-21.1,9.5-21.1,21.1c0,4,1.1,7.7,3,10.9
					c-7,0.5-13.3,3.3-18.1,7.8c-5.1-7.3-13.3-12.3-22.6-13.3c2.5-2.8,4-6.5,4-10.5c0-8.8-7.1-16-16-16c-8.8,0-16,7.1-16,16
					c0,6.4,3.7,11.9,9.1,14.4c-8.2,4.6-14.1,12.7-15.7,22.3c-6.6-9.4-17.5-15.5-29.8-15.5c-3.7,0-7.2,0.5-10.5,1.6
					c0-16.4-13.3-29.7-29.7-29.7c-1,0-1.9,0-2.9,0.1c2.3-6.6,3.5-13.6,3.5-20.9c0-35.6-28.9-64.5-64.5-64.5c-1.6,0-3.1,0.1-4.7,0.2
					c1.1-4.5,1.7-9.2,1.7-14c0-22.2-12.6-41.4-31.1-50.9c0.1-1.1,0.1-2.3,0.1-3.4c0-32.9-26.7-59.7-59.7-59.7
					c-9.5,0-18.4,2.2-26.3,6.1c-2.9-7.4-8.1-13.7-14.7-18c1.4-3.5,2.1-7.4,2.1-11.4C41,33,27,19,9.8,19c-17.2,0-31.2,14-31.2,31.2
					c0,8.2,3.2,15.7,8.3,21.2c-4.5,6.3-7.1,13.9-7.1,22.2c0,10.1,3.9,19.2,10.3,26.1c-6.2,4.3-10.3,11.5-10.3,19.7
					c0,5.5,1.8,10.5,4.9,14.5c-5.2,9.3-8.2,20-8.2,31.4c0,35.4,28.7,64.2,64.2,64.2c15.5,0,29.8-5.5,40.9-14.7
					c8.9,6,19.6,9.6,31.1,9.7c-2.3,6.6-3.6,13.8-3.6,21.2c0,35.6,28.9,64.5,64.5,64.5c12.6,0,24.4-3.7,34.4-9.9
					c2,14.5,14.4,25.7,29.5,25.7c1.4,0,2.8-0.1,4.2-0.3c-0.3,1.8-0.4,3.5-0.4,5.4c0,20.1,16.3,36.5,36.5,36.5
					c18.8,0,34.2-14.2,36.2-32.4c5.8,7.3,14.8,12,24.9,12c8.9,0,17-3.7,22.8-9.7c5.4,6.9,13.9,11.3,23.3,11.3
					c12.2,0,22.6-7.3,27.2-17.8c6.9,10.7,19,17.8,32.7,17.8c9.1,0,17.4-3.1,24.1-8.4c2.5,19.1,18.9,33.9,38.7,33.9
					c21.6,0,39.1-17.5,39.1-39.1C546.6,334.9,530.9,318.1,510.9,316.4z M407.4,318.7c-0.1,0.3-0.2,0.6-0.2,0.8
					c-0.2-0.2-0.4-0.4-0.5-0.6C406.9,318.9,407.2,318.8,407.4,318.7z"/>
				<linearGradient id="SVGID_10_" gradientUnits="userSpaceOnUse" x1="458.8741" y1="111.0765" x2="410.8741" y2="253.0764">
					<stop  offset="0" style="stop-color:#FFFFFF;stop-opacity:0"/>
					<stop  offset="1" style="stop-color:#FFFFFF"/>
				</linearGradient>
				<circle class="st10" cx="413.5" cy="245.3" r="7.7"/>
			</g>
			<g class="st8">
				<path class="st11" d="M0,193.2V500h500V377.8c0,0-56-53.6-177-31.2C202,369,187,201.4,0,193.2z"/>
				<path class="st12" d="M0,500h500v-52.5c0,0-75-71.6-239-71.6S0,434.8,0,434.8V500"/>
				<ellipse class="st13" cx="241.3" cy="423" rx="177.2" ry="38.4"/>
			</g>
		</g>
		<g>
			<defs>
				<rect id="SVGID_11_" width="500" height="500"/>
			</defs>
			<clipPath id="SVGID_12_">
				<use xlink:href="#SVGID_11_"  style="overflow:visible;"/>
			</clipPath>
			<g class="st14">
				<g>
					<path class="st15" d="M220,82.9l-42.1,4.9c0,0-46.6,35.5-44.7,37.9c1.9,2.3,51.7,6.3,51.7,6.3L220,82.9z"/>
					<path class="st15" d="M299.5,129.9l6,42c0,0-22.5,54.1-25.3,52.9c-2.8-1.3-19.2-48.5-19.2-48.5L299.5,129.9z"/>
					<g>
						<path class="st16" d="M330.1,23.3c-1.1-5.4-2-8.4-2-8.4c-128.9,1.5-143.5,123.3-143.5,123.3l54.5,37.3
							c7.1-2.8,14.1-6,20.9-9.5C310.6,140.7,330,79.6,330.1,23.3z"/>
						<path class="st17" d="M330.1,23.3C330,79.6,310.6,140.7,260,166c-6.8,3.5-13.8,6.7-20.9,9.5l11,7.5
							C343.5,134.4,335.4,50.1,330.1,23.3z"/>
						
							<ellipse transform="matrix(0.5264 -0.8503 0.8503 0.5264 -31.8531 261.2351)" class="st18" cx="218.6" cy="159.2" rx="20.1" ry="40"/>
						<g>
							<path class="st19" d="M218.9,155.2c-10.4-6.4-21.4-7.4-24.6-2.2l-5.3,8.6l10.8,6.7c2.1,2.1,4.6,4.1,7.4,5.8
								c2.9,1.8,5.7,3.1,8.5,4l10.8,6.7l5.3-8.6C235.1,171,229.3,161.6,218.9,155.2z"/>
							
								<ellipse transform="matrix(0.5264 -0.8503 0.8503 0.5264 -48.8185 258.6713)" class="st20" cx="207.8" cy="173.2" rx="11.1" ry="22.1"/>
							
								<ellipse transform="matrix(0.5264 -0.8503 0.8503 0.5264 -49.9844 258.6172)" class="st19" cx="207.1" cy="174.2" rx="7.5" ry="15"/>
						</g>
						<path class="st15" d="M328,14.7c-34.8-1.3-60.8,12-60.8,12c24.3-3.7,40.2,5.1,50.2,15.5c0.2-0.1,0.4-0.1,0.6-0.2
							C328.8,38.1,328,24.6,328,14.7z"/>
						<path class="st21" d="M328.2,14.7c-0.1,0-0.2,0-0.2,0c0,9.9,0.8,23.4-10,27.3c-0.2,0.1-0.4,0.1-0.6,0.2
							c11.2,11.6,15,25.1,15,25.1C336.5,42.4,328.2,14.7,328.2,14.7z"/>
					</g>
					<path class="st6" d="M267.2,28.8c0,0-52.2,21.1-69.9,78.7l31.5,3.3c0,0,43.8-64.2,75.5-75C304.2,35.8,288.8,24.8,267.2,28.8z"
						/>
					<linearGradient id="SVGID_13_" gradientUnits="userSpaceOnUse" x1="304.8278" y1="119.8804" x2="266.1613" y2="65.714">
						<stop  offset="0" style="stop-color:#F0F1F1;stop-opacity:0"/>
						<stop  offset="1" style="stop-color:#FFFFFF"/>
					</linearGradient>
					<path class="st22" d="M307.5,38.6c0,0-33.3,21.8-72.2,75.3c0,0,23.7,6.8,30.4,33.1l60-85.3C325.7,61.7,325.9,51.5,307.5,38.6z"
						/>
					<path class="st15" d="M218.7,145.2c0,0,9.6-34.5,40.4-52.5c2.4-1.4,5.4,0.7,4.8,3.4c-2.3,10.5-9.9,32.4-35.5,54.1
						C228.3,150.2,217.4,157.1,218.7,145.2z"/>
				</g>
				<path class="st23" d="M279,24.2c0,0,23.1-9.4,46.7-7.5c0,0-5.8,1.3-17.4,15.8C308.2,32.5,301.1,23.1,279,24.2z"/>
				<path class="st24" d="M144,119.3c0,0,33.5-30,35.3-29.5c1.8,0.5,21-2.7,21-2.7s-14.3,24.9-15.8,42
					C184.6,129.2,135,125.8,144,119.3z"/>
				<g>
					<g>
						<ellipse class="st18" cx="255.2" cy="54.8" rx="23.8" ry="13.8"/>
						<ellipse class="st25" cx="255.2" cy="51.6" rx="23.8" ry="13.8"/>
						<ellipse class="st18" cx="254.7" cy="50.6" rx="16.6" ry="9.6"/>
						<linearGradient id="SVGID_14_" gradientUnits="userSpaceOnUse" x1="258.4265" y1="65.6787" x2="251.2598" y2="42.6788">
							<stop  offset="0" style="stop-color:#303C61"/>
							<stop  offset="1" style="stop-color:#569886"/>
						</linearGradient>
						<ellipse class="st26" cx="254.2" cy="52.3" rx="13.7" ry="7.9"/>
					</g>
					<polygon class="st27" points="241.9,53.9 264.9,47.9 265.7,48.9 242.4,55.2 					"/>
					<path class="st28" d="M241.9,53l21.4-5.6C263.3,47.4,244.9,51.2,241.9,53z"/>
					<path class="st28" d="M244.4,56.2l21.4-5.6C265.9,50.6,247.4,54.4,244.4,56.2z"/>
				</g>
				<path class="st24" d="M297.6,148.9c0,0,2.7,19.5,2.7,22c0,2.5-19.9,46.2-19.9,46.2l-12.5-40.6
					C267.9,176.5,291.9,160.5,297.6,148.9z"/>
				<path class="st23" d="M261,94.2c0,0-40.4,49.8-39.2,52.8C223,150,261.7,99.2,261,94.2z"/>
			</g>
			<g class="st14">
				<circle class="st6" cx="62" cy="281" r="2.5"/>
				<circle class="st6" cx="40.9" cy="285.1" r="1.6"/>
				<circle class="st6" cx="34.9" cy="317.1" r="1.1"/>
				<circle class="st6" cx="18.2" cy="277.8" r="5.2"/>
				<circle class="st6" cx="86.8" cy="289.4" r="2.7"/>
				<path class="st6" d="M198.2,328.2c0,2.3-1.9,4.2-4.2,4.2c-2.3,0-4.2-1.9-4.2-4.2c0-2.3,1.9-4.2,4.2-4.2
					C196.3,324,198.2,325.9,198.2,328.2z"/>
				<circle class="st6" cx="229.4" cy="339.6" r="1.6"/>
				<circle class="st6" cx="253.5" cy="284.5" r="3.5"/>
				<circle class="st6" cx="281.3" cy="357.1" r="2.1"/>
				<circle class="st6" cx="310.6" cy="375.9" r="1.9"/>
				<circle class="st6" cx="386.9" cy="406.4" r="3.9"/>
				<circle class="st6" cx="436.5" cy="425.5" r="2.5"/>
				<circle class="st6" cx="420.1" cy="449.9" r="2.4"/>
				<circle class="st6" cx="420.7" cy="412.1" r="1.8"/>
				<circle class="st6" cx="342.2" cy="410.1" r="3.8"/>
				<circle class="st6" cx="203.2" cy="229.1" r="0.7"/>
				<path class="st6" d="M386.5,429.4c-5.3,0-10.1,2.2-13.5,5.8c-5.3-8.7-16.2-17.1-38.2-8.3c0,0-1.1,0.7-2.6,1.8
					c-2.4-2-5.3-3.4-8.5-3.9c-2.7-8.9-9.7-18.7-27.5-20.7c0,0,7.6-7.1,2.2-17.4c-4.2-8.1-18.8-13.8-29.6-10.2
					c-0.8-4.6-4.8-8.2-9.7-8.2c-2.3,0-4.3,0.8-6,2c-4.4-5.2-17.8-18-36.7-8.5c-3.1-8.6-11.4-14.8-21.1-14.8c-3.6,0-7.1,0.9-10.1,2.4
					c-1.3-5.2-4.5-9.7-9-12.5c2.1-3.3,3.3-7.2,3.3-11.4c0-11.9-9.6-21.5-21.5-21.5c-6.3,0-12,2.8-15.9,7.1l75.4-137.4
					c-5.8-7.7-14.4-9.2-14.4-9.2L95.9,310.1c-2.7-2.3-6.2-3.8-10.1-3.8c-8.5,0-15.3,6.9-15.3,15.3c0,0.8,0.1,1.5,0.2,2.2
					c-3.2-1-11.2-2.7-14.4,5.9c-0.8,2.1-1.1,3.9-1.2,5.5c-2.2,0.4-4.2,1.1-6.1,2c-3.1-5.1-8.5-8.6-14.8-9.2
					C32.1,317.8,23,310,12,310c-4.4,0-8.5,1.3-12,3.5v131.4c0,0,203.7,48.4,388.1,21.5c9.5-0.8,17-8.8,17-18.5
					C405.1,437.7,396.8,429.4,386.5,429.4z"/>
			</g>
			<circle class="st29" cx="202.9" cy="165.1" r="4.8"/>
			<circle class="st29" cx="198.3" cy="167" r="5.4"/>
			<circle class="st29" cx="191.7" cy="173.2" r="7.6"/>
			<circle class="st29" cx="212.5" cy="188.8" r="6.5"/>
			<path class="st29" d="M220.1,180.1c0,2.6-2.1,4.6-4.6,4.6s-4.6-2.1-4.6-4.6c0-2.6,2.1-4.6,4.6-4.6S220.1,177.6,220.1,180.1z"/>
			<path class="st29" d="M221.1,173.7c0,1.8-1.5,3.3-3.3,3.3c-1.8,0-3.3-1.5-3.3-3.3c0-1.8,1.5-3.3,3.3-3.3
				C219.6,170.4,221.1,171.8,221.1,173.7z"/>
			<path class="st29" d="M224,177.5c0,2.1-1.7,3.9-3.9,3.9c-2.1,0-3.9-1.7-3.9-3.9c0-2.1,1.7-3.9,3.9-3.9
				C222.2,173.7,224,175.4,224,177.5z"/>
			<circle class="st29" cx="214.7" cy="169.7" r="2.7"/>
			<circle class="st29" cx="211.7" cy="167.7" r="3.2"/>
			<circle class="st29" cx="207.4" cy="166.5" r="1.4"/>
			<g class="st14">
				<circle class="st6" cx="273.1" cy="424.6" r="6"/>
				<path class="st6" d="M481,449.2c-3.3,0-6.3,0.9-9,2.4c-5.3-6.8-13.5-11.1-22.8-11.1c-0.5,0-0.9,0-1.3,0c1.4-1.9,2.2-4.2,2.2-6.7
					c0-6.2-5.1-11.3-11.3-11.3c-4.4,0-8.2,2.5-10.1,6.2c-5.7-5.3-13.3-8.5-21.6-8.5c-11.3,0-21.2,5.9-26.8,14.8
					c-2.3-0.6-4.7-1-7.2-1c-5.5,0-10.6,1.6-14.9,4.5c-3.1-2.5-7-4.1-11.2-4.4c-2.5-8.1-10-13.9-18.9-13.9c-7.7,0-14.3,4.4-17.6,10.7
					c-1.5-0.4-3-0.7-4.7-0.7c-8.4,0-15.3,6.3-16.3,14.5c-2.6-2.9-6.3-4.8-10.5-4.8c-1.4,0-2.7,0.2-3.9,0.6
					c-2.7-6-8.8-10.2-15.9-10.2c-7.8,0-14.4,5.1-16.6,12.1c-4.7-9.2-14.2-15.6-25.3-15.6c-0.3,0-0.6,0-0.9,0
					c-1.6-8.9-9.4-15.6-18.7-15.6c-0.9,0-1.9,0.1-2.8,0.2c-4-9.3-13.2-15.7-24-15.7c-4.4,0-8.6,1.1-12.3,3.1
					c-1.5-15-14.2-26.7-29.6-26.7c-14.4,0-26.4,10.3-29.2,23.9c-0.8,0.1-1.5,0.4-2.2,0.6c-3.1-7-10-11.8-18.1-11.8
					c-2.7,0-5.2,0.5-7.6,1.5c0.1-0.8,0.2-1.5,0.2-2.3c0-9.3-7.5-16.8-16.7-16.8c-3.8,0-7.2,1.3-10.1,3.4
					c-3.6-11.7-14.5-20.1-27.4-20.1c-15.8,0-28.7,12.8-28.7,28.7c0,8.6,3.8,16.2,9.7,21.5c-9.3,4.2-15.7,13.6-15.7,24.4
					c0,8.6,4.1,16.3,10.4,21.2c-2.8,4.2-4.4,9.3-4.4,14.8c0,14.9,12.1,27,27,27c9.4,0,17.6-4.8,22.5-12c3.6,1.6,7.5,2.4,11.7,2.4
					c4.3,0,8.3-0.9,11.9-2.6c1,13.9,12.5,24.8,26.7,24.8c9.4,0,17.6-4.8,22.4-12.1c2,1,4.3,1.5,6.6,1.5c7.1,0,13.1-4.9,14.7-11.4
					c5.4,3,11.7,4.7,18.3,4.7c1,0,1.9,0,2.9-0.1c3.3,5.3,9.3,8.9,16,8.9c9.7,0,17.6-7.3,18.8-16.6c2.5,1.8,5.5,2.8,8.8,2.8
					c1.1,0,2.1-0.1,3.1-0.3c4.7,3.4,8.6,11.3,14.8,11.3c6.9,0,14.9-8.4,19.9-12.4c2.9,5.2,8.4,8.7,14.8,8.7c0,0,0,0,0,0
					c3.8,7.7,11.7,12.9,20.8,12.9c10.2,0,18.8-6.5,22-15.7c0.5,0.1,1.1,0.1,1.6,0.1c3.2,9.1,11.8,15.6,22,15.6
					c10.9,0,20-7.5,22.6-17.6c2.4,2.8,5.9,4.6,9.9,4.6c3,0,5.8-1.1,8.1-2.8c4.5,3.2,9.9,5.2,15.9,5.2c7.6,0,14.4-3.1,19.3-8.1
					c4.4,2.3,9.4,3.6,14.7,3.6c5,0,9.8-1.2,14-3.3c0.6,0.4,1.1,0.8,1.8,1.2c4.5,10,14.6,17,26.3,17c10.5,0,19.8-5.6,24.8-14.1
					c2.1,0.9,4.5,1.4,6.9,1.4c10,0,18.2-8.1,18.2-18.2S491,449.2,481,449.2z"/>
			</g>
			<g class="st14">
				<path class="st6" d="M250.4,475.2c3.3,0,6-2.7,6-6s-2.7-6-6-6c-3.3,0-6,2.7-6,6S247.1,475.2,250.4,475.2z"/>
				<path class="st6" d="M531.7,486.2c-3.7,0-7.3,1-10.3,2.7c-6.1-7.8-15.5-12.8-26.2-12.8c-0.5,0-1,0-1.5,0
					c1.6-2.2,2.5-4.8,2.5-7.7c0-7.2-5.8-13-13-13c-5,0-9.4,2.9-11.6,7.1c-6.5-6.1-15.2-9.8-24.8-9.8c-13,0-24.3,6.8-30.8,17
					c-2.6-0.7-5.4-1.1-8.2-1.1c-6.3,0-12.2,1.9-17.1,5.1c-3.5-2.9-8-4.7-12.8-5.1c-2.8-9.3-11.5-16-21.7-16c-8.8,0-16.4,5-20.2,12.3
					c-1.7-0.5-3.5-0.8-5.4-0.8c-9.7,0-17.6,7.2-18.8,16.6c-3-3.4-7.3-5.5-12.1-5.5c-1.6,0-3,0.2-4.5,0.6
					c-3.2-6.9-10.1-11.8-18.2-11.8c-8.9,0-16.5,5.8-19.1,13.9c-5.4-10.6-16.3-17.9-29-17.9c-0.3,0-0.7,0-1,0
					c-1.9-10.2-10.8-18-21.5-18c-1.1,0-2.1,0.1-3.2,0.3c-4.6-10.6-15.2-18-27.5-18c-5.1,0-9.9,1.3-14.1,3.5
					c-1.8-17.2-16.3-30.6-34-30.6c-16.5,0-30.3,11.8-33.5,27.4c-0.9,0.2-1.7,0.4-2.6,0.7c-3.5-8-11.5-13.6-20.8-13.6
					c-3.1,0-6,0.6-8.7,1.7c0.1-0.9,0.2-1.8,0.2-2.7c0-10.6-8.6-19.2-19.2-19.2c-4.3,0-8.3,1.5-11.5,3.9
					c-4.2-13.4-16.7-23.1-31.4-23.1c-18.2,0-32.9,14.7-32.9,32.9c0,9.8,4.3,18.6,11.1,24.7c-10.6,4.9-18,15.6-18,28
					c0,9.9,4.7,18.7,11.9,24.3c-3.2,4.9-5,10.7-5,16.9c0,17.1,13.9,31,31,31c10.8,0,20.2-5.5,25.8-13.8c4.1,1.8,8.6,2.8,13.4,2.8
					c4.9,0,9.5-1.1,13.7-2.9c1.1,15.9,14.4,28.5,30.6,28.5c10.7,0,20.2-5.5,25.7-13.8c2.3,1.1,4.9,1.8,7.6,1.8
					c8.1,0,15-5.6,16.9-13.1c6.2,3.5,13.4,5.4,21,5.4c1.1,0,2.2-0.1,3.3-0.1c3.8,6.1,10.6,10.2,18.4,10.2c11.1,0,20.2-8.3,21.5-19.1
					c2.8,2,6.3,3.2,10.1,3.2c1.2,0,2.4-0.1,3.6-0.4c5.4,3.9,11.9,6.2,19.1,6.2c7.9,0,15.1-2.8,20.7-7.5c3.3,6,9.6,10,16.9,10
					c0,0,0,0,0.1,0c4.4,8.8,13.4,14.8,23.9,14.8c11.7,0,21.6-7.5,25.2-18c0.6,0.1,1.2,0.1,1.9,0.1c3.7,10.4,13.6,17.9,25.2,17.9
					c12.5,0,23-8.6,25.9-20.1c2.7,3.2,6.8,5.3,11.4,5.3c3.5,0,6.7-1.2,9.2-3.2c5.1,3.7,11.4,5.9,18.2,5.9c8.7,0,16.5-3.6,22.1-9.3
					c5,2.6,10.8,4.1,16.8,4.1c5.8,0,11.3-1.4,16.1-3.8c0.6,0.5,1.3,1,2,1.4c5.2,11.5,16.8,19.5,30.2,19.5c12.1,0,22.7-6.5,28.5-16.2
					c2.5,1,5.1,1.6,8,1.6c11.5,0,20.9-9.3,20.9-20.9C552.5,495.5,543.2,486.2,531.7,486.2z"/>
				<path class="st6" d="M192.2,599c-2.1-3.7-5-6.6-8.3-8.6c4.3-10.2,4.1-22.3-1.8-32.8c-0.3-0.5-0.6-1-0.9-1.5c3,0.4,6.1-0.1,9-1.7
					c7.1-3.9,9.6-12.8,5.7-19.9c-2.8-5-8-7.7-13.3-7.5c2.4-9.7,1.3-20.4-3.9-29.8c-7.1-12.8-20.1-20.3-33.7-21
					c-0.7-3-1.9-5.9-3.4-8.7c-3.5-6.2-8.5-11-14.4-14c0.9-5.1,0.3-10.5-2.1-15.4c7.6-7.9,9.5-20.1,3.9-30.1
					c-4.8-8.7-13.9-13.4-23.2-13.1c-0.4-1.9-1.1-3.9-2.2-5.7c-5.3-9.5-16.8-13.4-26.6-9.4c1.7-4.8,1.4-10.2-1.2-14.9
					c-0.9-1.5-1.9-2.9-3.1-4.1c5.1-6.9,6-16.4,1.6-24.4c-4.9-8.8-14.8-13-24.2-11.2c7.5-11.1,8.6-25.9,1.7-38.4
					c-0.2-0.3-0.4-0.7-0.6-1c9-7.4,11.8-20.5,5.9-31c-0.6-1.1-1.3-2.1-2-3c7.9-10.4,9.4-24.9,2.7-37c-2.8-5-6.7-9.1-11.2-12
					c16-11.2,21.2-32.8,11.5-50.2c-9.1-16.3-28.2-23.4-45.4-18c-0.7-0.8-1.4-1.5-2.1-2.1c6-7.8,7.1-18.8,2-27.9
					c-1.7-3-3.9-5.6-6.5-7.6c0.9-0.4,1.8-0.8,2.7-1.3c10.5-5.8,14.2-19,8.4-29.5c-2.4-4.3-6-7.4-10.1-9.2
					C18,45.4,20.7,27.8,12.6,13.2C2.6-4.7-20-11.1-37.9-1.1c-9.7,5.4-16,14.5-18.2,24.5c-10.6-7.8-25.2-9.2-37.5-2.4
					c-9.8,5.4-15.9,14.9-17.5,25.1c-6.5-0.5-13.3,0.9-19.5,4.3c-16.9,9.4-22.9,30.6-13.5,47.5c5.9,10.6,16.5,16.9,27.7,17.8
					c0.5,5,2,10.1,4.6,14.8c2.7,4.8,6.3,8.8,10.4,11.9c-15.1,9.8-20.2,29.8-11.3,45.8c5.9,10.6,16.5,16.9,27.7,17.7
					c0.2,2.9,0.9,5.8,2.4,8.5c4.5,8,13.7,11.7,22.2,9.5c0,8,2,16.2,6.2,23.7c0.6,1.1,1.3,2.2,2,3.2c-3.9,7.1-4.2,16.1,0,23.7
					c6.1,10.9,19.3,15.4,30.6,10.8c-0.4,3.9,0.3,8,2.4,11.7c0.7,1.2,1.5,2.3,2.3,3.3c-0.9,7.4,0.5,15.2,4.4,22.2
					c4.3,7.8,11.1,13.4,18.8,16.3c-4.1,6.5-4.6,15-0.6,22.2c0,0,0,0,0,0c-6.3,9.1-7.2,21.4-1.5,31.7c6.4,11.5,19.3,17.2,31.5,15
					c0.3,0.6,0.6,1.3,0.9,1.9c-8.2,9.3-10.1,23.2-3.8,34.7c6.9,12.3,21.1,18,34.1,14.5c-1.7,4.5-1.5,9.6,1,14.1
					c1.9,3.4,4.9,5.9,8.3,7.3c-0.9,7.1,0.4,14.5,4.1,21.2c4.8,8.6,12.6,14.3,21.3,16.7c0.2,6.4,1.8,12.9,5.2,18.9
					c3.2,5.7,7.5,10.3,12.6,13.8c-0.2,0.9-0.2,1.8-0.3,2.7c-8.4,11.4-10,27.2-2.6,40.5c6.6,11.9,18.8,18.8,31.5,19.2
					c0.3,3,1.3,5.9,2.8,8.7c6.3,11.4,20.7,15.4,32,9.1S198.5,610.4,192.2,599z"/>
			</g>
		</g>
	</g>
</g>
<g id="DESIGNED_BY_FREEPIK">
</g>
</svg>
